<svg xmlns="http://www.w3.org/2000/svg" viewBox="0 0 800 200">
  <!-- Fundo -->
  <rect width="800" height="200" rx="20" fill="#f8f9fa" />
  
  <!-- Elementos decorativos -->
  <circle cx="100" cy="100" r="60" fill="#0d6efd" opacity="0.1" />
  <circle cx="700" cy="100" r="60" fill="#0d6efd" opacity="0.1" />
  
  <!-- Texto Principal -->
  <text x="400" y="110" font-family="Arial, sans-serif" font-size="72" font-weight="bold" text-anchor="middle" fill="#0d6efd">SisPesq</text>
  
  <!-- Ícones -->
  <g transform="translate(190, 100) scale(1.5)">
    <!-- Documento/Projeto -->
    <path d="M10,2 L10,22 L24,22 L24,8 L18,2 Z" fill="#0d6efd" />
    <path d="M17,2 L17,9 L24,9 Z" fill="#0d6efd" opacity="0.7" />
  </g>
  
  <g transform="translate(580, 100) scale(1.5)">
    <!-- Pessoas/Colaboração -->
    <circle cx="12" cy="8" r="5" fill="#0d6efd" />
    <path d="M2,22 C2,16 6,14 12,14 C18,14 22,16 22,22 Z" fill="#0d6efd" />
    
    <circle cx="19" cy="5" r="3" fill="#0d6efd" opacity="0.7" />
    <path d="M13,14 C16,12 18,11 22,13 L22,18 Z" fill="#0d6efd" opacity="0.7" />
  </g>
  
  <!-- Tagline -->
  <text x="400" y="145" font-family="Arial, sans-serif" font-size="18" text-anchor="middle" fill="#495057">Sistema de Gerenciamento de Projetos de Pesquisa</text>
  
  <!-- Decoração inferior -->
  <rect x="300" y="160" width="200" height="4" rx="2" fill="#0d6efd" />
</svg>
